<svg version="1.1" xmlns="http://www.w3.org/2000/svg" xmlns:xlink="http://www.w3.org/1999/xlink" x="0px" y="0px" viewBox="0 0 256 256" enable-background="new 0 0 256 256" xml:space="preserve">
<g><g><g><path fill="#989898" d="M115.1,10.4c-0.6,0.2-1.4,0.9-1.8,1.6c-0.7,1.1-0.7,1.8,0.2,11c0.8,8.7,1,9.8,2,10.9c2.2,2.3,7.1,0.8,7-2.3c0-2.4-1.8-18.6-2.1-19.4c-0.4-0.9-2.6-2.2-3.6-2.2C116.5,10,115.7,10.2,115.1,10.4z"/><path fill="#989898" d="M137.1,10.6c-0.7,0.4-1.4,1-1.6,1.5c-0.3,0.8-2.1,16.8-2.1,19.2c0,3.2,4.8,5,7,2.5c0.9-1,1.1-2.2,1.9-10.2c1.1-11.3,1.2-10.5-0.1-11.9C141,10.1,138.8,9.7,137.1,10.6z"/><path fill="#989898" d="M93.4,14.8c-1.2,0.3-1.7,0.9-2.3,2.1c-0.7,1.6-0.6,2,2.1,11c3.1,10.1,3.6,11,6.5,11c2,0,3.9-1.7,3.9-3.6c0-1.5-4.5-16.7-5.5-18.6C97.4,14.9,95.5,14.2,93.4,14.8z"/><path fill="#989898" d="M158.5,15.6c-0.5,0.5-1.6,3.1-2.4,5.8c-0.8,2.7-2,6.5-2.6,8.5c-0.6,2-1.1,4.3-1.1,5.1c0,2,1.8,3.7,3.9,3.7c2.9,0,3.4-0.9,6.5-10.9c3-9.7,3.1-11,1.1-12.6C162.5,14.4,159.5,14.5,158.5,15.6z"/><path fill="#989898" d="M71.3,24.2c-2.2,1.8-1.8,3.4,3.1,12.4c2.4,4.4,4.6,8.3,4.9,8.6c0.3,0.3,1.4,0.7,2.3,0.9c1.5,0.2,1.9,0,3.2-1.2c1.2-1.3,1.5-1.7,1.2-3c-0.3-1.8-8.5-17.3-9.6-18.2C75.2,22.8,72.7,23.1,71.3,24.2z"/><path fill="#989898" d="M179.5,23.7c-1.1,0.9-9.3,16.3-9.6,18.1c-0.4,2.2,1.5,4.2,4.1,4.2c1.1,0,2.2-0.3,2.6-0.7c0.4-0.4,2.6-4.3,5-8.7c4.8-9,5.1-10.5,3-12.4C183.3,23.1,180.8,22.8,179.5,23.7z"/><path fill="#989898" d="M52.6,36.8c-2,2.1-1.8,3.7,0.8,7c7.4,9.1,10.2,12.3,10.8,12.6c2.8,1.1,5.9-0.8,5.9-3.6c0-1.4-0.9-2.7-5.9-8.9c-3.3-4-6.4-7.5-6.9-7.8C55.6,35.1,54.1,35.3,52.6,36.8z"/><path fill="#989898" d="M198.7,36c-0.5,0.3-3.7,3.8-6.9,7.8c-5.1,6.1-5.9,7.5-5.9,8.9c0,2.9,3,4.7,5.9,3.6c0.7-0.3,3.4-3.5,10.8-12.6c2.7-3.3,2.9-4.9,0.8-7C201.9,35.3,200.4,35.1,198.7,36z"/><path fill="#989898" d="M36.6,52.7c-1.3,1.4-1.5,3.9-0.5,5.2c0.8,0.9,12.2,10.4,14.1,11.7c1.7,1.2,3.6,1,5.1-0.3c0.9-0.9,1.2-1.6,1-3.2c-0.1-1.9-0.3-2.1-7.6-8.3c-6.7-5.5-7.7-6.2-9.3-6.2C38.2,51.5,37.4,51.8,36.6,52.7z"/><path fill="#989898" d="M208.7,56.5c-8.3,6.7-9.3,7.7-9.3,9.5c-0.1,2.8,2.3,4.9,5,4.2c1-0.2,11.8-8.8,14.7-11.7c2.7-2.6,1.1-7-2.6-7C215.1,51.5,214,52.2,208.7,56.5z"/><path fill="#989898" d="M25.5,70.4c-2.5,1-3.3,4.3-1.5,6.3c1.7,1.8,16.3,9.4,18.2,9.4c3.2,0,5-4.1,2.8-6.5c-1.2-1.2-16.8-9.7-17.9-9.7C26.8,69.9,26,70.1,25.5,70.4z"/><path fill="#989898" d="M220,74.1c-4.4,2.4-8.5,4.9-9.1,5.5c-2.2,2.5-0.5,6.5,2.7,6.5c1.9,0,16.6-7.6,18.3-9.4c2-2.3,0.6-6-2.5-6.6C228.4,69.9,226.6,70.7,220,74.1z"/><path fill="#989898" d="M16.6,91.2c-2.4,1.4-2.9,4.7-1.1,6.4c1.1,1,17.5,6.3,19.5,6.3c1.3,0,3.4-1.9,3.5-3.2c0.2-3.7-0.7-4.3-11-7.4c-4.8-1.5-9.1-2.6-9.4-2.6C17.8,90.7,17.1,90.9,16.6,91.2z"/><path fill="#989898" d="M228,93.5c-4.7,1.5-9,3-9.4,3.4c-2.7,2.3-1,7.1,2.5,7.1c2,0,18.3-5.3,19.4-6.3c1.2-1.1,1.4-3.8,0.4-5.1c-0.8-1-2.4-1.8-3.5-1.8C236.9,90.8,232.7,91.9,228,93.5z"/><path fill="#989898" d="M11.5,113.8c-1.4,1-1.9,3-1.3,4.5c0.8,2.1,2.2,2.5,11.9,3.5c8.3,0.9,9.4,0.9,10.7,0.2c2.8-1.5,2.6-6.1-0.3-7.2c-1.2-0.4-15.6-2-18.7-2C13.2,112.9,12.1,113.3,11.5,113.8z"/><path fill="#989898" d="M231.4,113.7c-4.2,0.4-8,1-8.5,1.3c-0.6,0.3-1.3,1.2-1.6,2c-0.5,1.3-0.5,1.7,0.1,3.1c0.4,0.9,1.3,1.8,2,2.1c1.7,0.7,19.4-1.1,20.9-2.1c2.3-1.5,2.4-4.7,0.2-6.4C243,112.7,241.9,112.7,231.4,113.7z"/><path fill="#989898" d="M20.4,134.5c-4.2,0.5-8,1.1-8.5,1.4c-2.5,1.3-2.3,5.6,0.3,7c1.2,0.6,2.4,0.6,11-0.3c8.8-0.9,9.6-1.1,10.7-2.1c1.7-1.7,1.6-4.2-0.2-5.7C32.1,133.4,31.1,133.4,20.4,134.5z"/><path fill="#989898" d="M222.4,134.8c-1.7,1.5-1.8,4.1-0.1,5.7c1,1,1.9,1.2,10.7,2.1c8.6,0.9,9.7,0.9,11,0.3c3.2-1.7,2.7-6.4-0.8-7.3c-1.7-0.5-15.5-1.9-18.2-1.9C224.2,133.6,223.1,134.1,222.4,134.8z"/><path fill="#989898" d="M24.4,155.1c-8.9,2.7-9.9,3.4-9.9,6.1c0,2.3,1.6,4,3.6,4c1.4,0,8.5-1.9,17.5-4.8c3-0.9,4-4.6,1.9-6.8C36,152,33.9,152.2,24.4,155.1z"/><path fill="#989898" d="M218.5,153.5c-0.5,0.6-1.1,1.5-1.2,1.9c-0.5,1.2,0.9,4,2.1,4.6c2.6,1.2,17,5.2,18.5,5.2c3,0,4.8-4.2,2.8-6.5c-1-1.1-17-6.2-19.6-6.2C220,152.5,219.2,152.9,218.5,153.5z"/><path fill="#989898" d="M32.4,174.5c-4.5,2.5-8.5,4.8-8.8,5.2c-1.8,2.4,0.2,6.3,3.2,6.3c1.7,0,16.4-7.5,18.3-9.3c1.5-1.5,1.4-3.6-0.3-5.4c-0.9-0.9-1.8-1.4-2.7-1.4C41.2,170,37.1,172,32.4,174.5z"/><path fill="#989898" d="M212,170.5c-2.2,1-2.7,4.5-1,6.2c1.8,1.8,16.5,9.3,18.2,9.3c3.2,0,5.1-4.2,2.9-6.4c-1.3-1.4-16.8-9.6-18.1-9.6C213.4,170,212.5,170.3,212,170.5z"/><path fill="#989898" d="M43.6,192c-4,3.3-7.5,6.5-7.8,7.1c-1.3,2.5,0.9,5.8,3.7,5.8c1.3,0,3.2-1.4,12-8.6c4.3-3.6,5-4.4,5-6.4c0-2.3-1.5-3.8-3.9-3.8C51.1,186,50,186.8,43.6,192z"/><path fill="#989898" d="M200.6,187.1c-1,1.1-1.2,2-1.1,4c0,0.7,2,2.6,6.6,6.4c8.9,7.4,9,7.5,10.5,7.5c2.8,0,5-3.4,3.7-5.8c-0.3-0.7-3.9-3.9-7.9-7.1c-6.4-5.2-7.5-5.9-9-5.9C202.1,186,201.3,186.4,200.6,187.1z"/></g></g></g>
</svg>